<svg xmlns="http://www.w3.org/2000/svg" width="126.884" height="93.476" viewBox="0 0 126.884 93.476">
    <g>
        <path fill="#b10023" d="M41.845 69.756l-3.453 1.257 1.257 3.453 8.03 22.063 1.257 3.453 8.042 22.094 1.257 3.453 3.453-1.257 44.619-16.24-1.157-3.18-.1-.273 2.476-.9.1.268 1.159 3.184 53.041-19.305 3.453-1.257-1.257-3.453-8.042-22.094-1.257-3.453-8.03-22.063-1.231-3.383-.025-.069zM89.5 105.843l2.715 3.407-9.8 3.566-.083-4.365zm-7.324-1.221l-.228-8.339.055-.02 5.159 6.545zm47.882-9.145l-2.136-5.87 1.584-3.785 8.335 6.822zm30.509-11.1l-17.9 6.517-11.3-9.108 3.695-10.107-4.767 1.735-4.059 11.565-3.242-8.908-4.223 1.529 7.064 19.409-4.195 1.531-7.065-19.409-4.222 1.537 7.064 19.409-8.5 3.092c2.451-1.725 3.949-4.484 2.722-7.854l-.278-.763-4 1.457.129.354c.833 2.288-.71 3.9-2.344 4.494-2.125.773-4.324.155-5.108-2l-2.2-6.048c-.9-2.479.739-4.156 2.51-4.8 1.634-.595 3.96-.392 4.783 1.869l.139.382 4-1.458-.27-.76c-1.606-4.413-6.253-4.974-9.985-3.616-4.277 1.557-7.052 5.374-5.347 10.06l2.2 6.048c1.3 3.576 4.39 4.9 7.7 4.587l-6.934 2.523-14.043-16.9-4.284 1.556.024 22-17.9 6.515-8.042-22.09 44.619-16.24-1.161-3.185-.1-.266 2.477-.9.1.261 1.162 3.192 53.041-19.305zM80.2 80.289l2.719 3.411-9.8 3.568-.086-4.368zm-7.324-1.221l-.228-8.34.055-.02 5.158 6.545zm47.885-9.138l-2.139-5.877 1.584-3.785 8.342 6.828zm30.509-11.1l-17.9 6.515-11.3-9.113 3.7-10.107-4.768 1.735-4.059 11.565-3.242-8.908-4.231 1.533 7.067 19.417-4.195 1.527-7.067-19.417-4.222 1.537 7.067 19.417-8.524 3.1c2.465-1.724 3.978-4.49 2.747-7.872l-.278-.759-4 1.458.129.354c.833 2.288-.71 3.9-2.344 4.494-2.125.773-4.324.155-5.108-2l-2.2-6.048c-.9-2.479.739-4.156 2.51-4.8 1.634-.595 3.96-.392 4.783 1.869l.139.381 4-1.457-.278-.763c-1.606-4.413-6.253-4.974-9.985-3.616-4.277 1.557-7.052 5.374-5.347 10.06l2.2 6.048c1.305 3.587 4.409 4.907 7.726 4.584L87.332 82.1 73.283 65.19l-4.277 1.557.024 22.011-17.9 6.514-8.03-22.063 100.138-36.446z" transform="translate(-38.392 -32.053)"/>
    </g>
</svg>
